<svg xmlns="http://www.w3.org/2000/svg" width="32" height="32" version="1.0"><defs><linearGradient id="b" x1="151" x2="112" y1="192.3" y2="137.3" gradientTransform="matrix(.56254 0 0 .56797 -15 -11.7)" gradientUnits="userSpaceOnUse"><stop offset="0" stop-color="#ffd43b"/><stop offset="1" stop-color="#ffe873"/></linearGradient><linearGradient id="a" x1="26.6" x2="135.7" y1="20.6" y2="114.4" gradientTransform="matrix(.56254 0 0 .56797 -15 -11.7)" gradientUnits="userSpaceOnUse"><stop offset="0" stop-color="#5a9fd4"/><stop offset="1" stop-color="#306998"/></linearGradient></defs><path fill="url(#a)" d="M55 0c-4.8 0-9 .4-13 1-11.2 2.2-13.3 6.4-13.3 14v10.3h26.8v3.4H18.6C10.8 28.7 4 33.3 2 42.3a50.1 50.1 0 0 0 0 27.2c1.9 8 6.4 13.6 14.2 13.6h9.3V70.8A17 17 0 0 1 42 54.2h27c7.4 0 13.4-6.1 13.4-13.6V15c0-7.2-6.1-12.7-13.4-13.9C64.3.3 59.5 0 54.9 0zM40.3 8.2a5 5 0 0 1 5 5.1 5 5 0 0 1-5 5.1 5 5 0 0 1-5-5 5 5 0 0 1 5-5.2z" transform="translate(.2) scale(.28473)"/><path fill="url(#b)" d="M85.6 28.7v11.9c0 9.2-7.8 17-16.7 17H42c-7.3 0-13.4 6.2-13.4 13.6v25.5c0 7.3 6.3 11.6 13.4 13.6 8.5 2.5 16.6 3 26.8 0 6.7-2 13.4-5.8 13.4-13.6V86.5H55.5v-3.4h40.2c7.8 0 10.7-5.4 13.4-13.6a46 46 0 0 0 0-27.3c-2-7.7-5.6-13.5-13.4-13.5zm-15 64.6a5 5 0 0 1 5 5.1 5 5 0 0 1-5 5.1 5 5 0 0 1-5-5 5 5 0 0 1 5-5.2z" transform="translate(.2) scale(.28473)"/></svg>
